PathFileType	4	(X/Y/Z)	./resultDataOpenSim/trcMotMarkerGrf/sub09/qtm-01-07.trc
DataRate	CameraRate	NumFrames	NumMarkers	Units	OrigDataRate	OrigDataStartFrame	OrigNumFrames
250.000000	250.000000	10	24	m	250.000000	1	472
Frame#	Time	L.Toe.Tip			R.Toe.Tip			L.Ankle.Lat			R.Ankle.Lat			L.Ankle.Med			R.Ankle.Med			L.Heel			R.Heel			L.Knee.Lat			R.Knee.Lat			L.Knee.Med			R.Knee.Med			L.Thigh.Upper			R.Thigh.Upper			L.ASIS			R.ASIS			V.Sacral			L.Acromium			R.Acromium			C7			L.Elbow			R.Elbow			L.Wrist.Lat			R.Wrist.Lat
		X1	Y1	Z1	X2	Y2	Z2	X3	Y3	Z3	X4	Y4	Z4	X5	Y5	Z5	X6	Y6	Z6	X7	Y7	Z7	X8	Y8	Z8	X9	Y9	Z9	X10	Y10	Z10	X11	Y11	Z11	X12	Y12	Z12	X13	Y13	Z13	X14	Y14	Z14	X15	Y15	Z15	X16	Y16	Z16	X17	Y17	Z17	X18	Y18	Z18	X19	Y19	Z19	X20	Y20	Z20	X21	Y21	Z21	X22	Y22	Z22	X23	Y23	Z23	X24	Y24	Z24

1	0	-1.5385411	0.036167865	-0.0035973803	-1.0642997	0.07377829	0.1087698	-1.6875114	0.075542792	-0.037815359	-1.214454	0.073081217	0.13070567	-1.6624219	0.094024058	0.055699446	-1.1998162	0.11266347	0.041103871	NaN	NaN	NaN	-1.2698329	0.041790106	0.071705929	-1.5530089	0.4706145	-0.099484677	-1.2247108	0.53063796	0.18368928	-1.5538951	0.47287687	0.02624606	-1.2278916	0.51380575	0.05753087	-1.4605193	0.88328348	-0.14841996	-1.4292699	0.88229837	0.22224287	-1.3583179	0.95788159	-0.093760013	-1.3515839	0.96396816	0.14588356	-1.512266	1.0254329	0.040551504	-1.3203949	1.4088736	-0.13184344	-1.3514251	1.4202195	0.19483777	-1.39697	1.4694636	0.020925741	-1.4409542	1.0532775	-0.21215251	NaN	NaN	NaN	-1.2098142	0.90898357	-0.17654897	-1.4126005	0.85722654	0.31166917
2	0.004	-1.538534	0.036050416	-0.0035603592	-1.0454083	0.076542524	0.10972049	-1.6873732	0.076078316	-0.037451556	-1.1956678	0.072139012	0.13066039	-1.6613325	0.094665164	0.055861179	-1.181724	0.11218844	0.04129088	NaN	NaN	NaN	-1.2497242	0.039698866	0.071669965	-1.5511319	0.47074018	-0.099733743	-1.2184286	0.5293039	0.1841796	-1.5521134	0.47298517	0.026174374	-1.2209327	0.51245695	0.057582197	-1.4551912	0.88233322	-0.14824349	-1.4236474	0.88073147	0.22231405	-1.3522533	0.95659562	-0.09379507	-1.345407	0.96241764	0.14600908	-1.5060515	1.0235745	0.040403094	-1.3145147	1.4076424	-0.13164559	-1.3460261	1.4187933	0.19497605	-1.3914014	1.4680988	0.021093182	-1.4337949	1.0514307	-0.2116659	NaN	NaN	NaN	-1.2013932	0.9090385	-0.17563537	-1.4076369	0.8556403	0.31200101
3	0.008	-1.538514	0.035954143	-0.0035542749	-1.0265934	0.079522066	0.11062885	-1.6871989	0.076689033	-0.037093303	-1.1769988	0.071374172	0.13066	-1.6604469	0.095273244	0.056009217	-1.1636525	0.11193525	0.041503143	NaN	NaN	NaN	-1.2297714	0.037808882	0.071576628	-1.5492306	0.47085344	-0.099944763	-1.2125266	0.52786775	0.18459035	-1.5502757	0.47308497	0.026134908	-1.2139943	0.51105735	0.057627455	-1.4497796	0.88134837	-0.14807895	-1.4179301	0.87913638	0.22238452	-1.3462205	0.95527514	-0.093840928	-1.3392428	0.96086835	0.14611188	-1.4998378	1.0217108	0.040263247	-1.3086254	1.4064084	-0.13143903	-1.3405777	1.4173672	0.19512702	-1.3858543	1.4668153	0.021566331	-1.4265211	1.0495322	-0.21125317	NaN	NaN	NaN	-1.1930228	0.90903085	-0.17473026	-1.4026578	0.8540436	0.31232306
4	0.012	-1.5384845	0.0358802	-0.0035793196	-1.0079263	0.082838974	0.11147035	-1.6869749	0.077386879	-0.03676006	-1.1585033	0.070903273	0.13073791	-1.659818	0.095858133	0.056142247	-1.1456781	0.11199669	0.041756859	NaN	NaN	NaN	-1.2101369	0.036265972	0.071279918	-1.5472388	0.47095228	-0.10011397	-1.2073089	0.52625035	0.18482298	-1.5482482	0.4731874	0.026122152	-1.2070953	0.50958652	0.057665697	-1.4442345	0.88031516	-0.14790023	-1.4121001	0.87750252	0.22245358	-1.3402159	0.95392055	-0.093885732	-1.3330739	0.95931349	0.14619369	-1.4936452	1.0199081	0.040202322	-1.302716	1.4051689	-0.13121729	-1.3350703	1.4159402	0.19529733	-1.3802339	1.4656383	0.022659423	-1.4190646	1.0476269	-0.21086736	NaN	NaN	NaN	-1.1847117	0.90893059	-0.17383327	-1.397647	0.85242231	0.31262697
5	0.016	-1.538455	0.035817452	-0.0036184636	-0.98951301	0.086506587	0.11227152	-1.686713	0.078134025	-0.036477286	-1.1402683	0.070744073	0.13089783	-1.6593646	0.096451854	0.056272028	-1.1279535	0.11234304	0.042054283	NaN	NaN	NaN	-1.1910281	0.035158223	0.070579309	-1.5450629	0.47103809	-0.10024995	-1.2028655	0.52444149	0.18479299	-1.5459899	0.47329446	0.026111297	-1.2002598	0.50805572	0.057700477	-1.4385663	0.87924346	-0.14766878	-1.4061977	0.87583466	0.22252188	-1.3342174	0.95255634	-0.093908909	-1.3268996	0.95775032	0.14627129	-1.4874755	1.0182111	0.040289937	-1.2967906	1.4039239	-0.13097844	-1.3295382	1.4145159	0.19548981	-1.3744188	1.4645386	0.024478977	-1.4114385	1.0457994	-0.21040855	NaN	NaN	NaN	-1.1764637	0.90874176	-0.17294346	-1.3925975	0.8507756	0.31291671
6	0.02	-1.5384257	0.035757434	-0.0036602577	-0.9714677	0.09048539	0.11309429	-1.6864379	0.078905763	-0.036257817	-1.1223726	0.070859001	0.13111927	-1.6589654	0.09707153	0.056412591	-1.1105946	0.11291338	0.042395369	NaN	NaN	NaN	-1.1724361	0.03444035	0.069600495	-1.5426687	0.4711089	-0.10036063	-1.1988314	0.52252211	0.18456493	-1.5435093	0.47338366	0.026079067	-1.193491	0.50647898	0.057732298	-1.4328353	0.87815211	-0.14738416	-1.4002545	0.87413502	0.22259259	-1.3282052	0.95119255	-0.093907094	-1.3207258	0.95617983	0.14635456	-1.4812985	1.0165846	0.040506247	-1.290853	1.4026694	-0.13072118	-1.3239967	1.4130986	0.19570697	-1.3684157	1.4634512	0.026660362	-1.4037332	1.0440547	-0.2098679	NaN	NaN	NaN	-1.1682872	0.90847921	-0.17206456	-1.3875089	0.84911731	0.3132086
7	0.024	-1.5383887	0.035698567	-0.0037001859	-0.95390993	0.094696905	0.1139722	-1.6861707	0.079708009	-0.036096449	-1.1048215	0.071226291	0.13139225	-1.6585258	0.097716058	0.056564724	-1.0936377	0.11367355	0.042782258	NaN	NaN	NaN	-1.1539665	0.033874122	0.069056019	-1.5401015	0.47115836	-0.10045805	-1.1945238	0.52061237	0.18435955	-1.5407462	0.47343092	0.026013058	-1.1867718	0.50486215	0.057752239	-1.4271151	0.87705585	-0.14709753	-1.3942923	0.8724025	0.22266995	-1.322182	0.94982391	-0.09389367	-1.3145418	0.95460488	0.14644352	-1.4751681	1.0149739	0.040642798	-1.2848959	1.4014005	-0.13044031	-1.3184403	1.4116878	0.19594899	-1.3623534	1.4623055	0.02856255	-1.3960821	1.042329	-0.20934413	NaN	NaN	NaN	-1.1601848	0.90815004	-0.1711995	-1.3823847	0.84746083	0.3135116
8	0.028	-1.5383381	0.035643458	-0.0037375661	-0.93690757	0.099031193	0.1148987	-1.6859172	0.080543583	-0.035980763	-1.0875885	0.071838546	0.13173003	-1.6580181	0.098382727	0.056709776	-1.0770789	0.11461115	0.043210721	NaN	NaN	NaN	-1.1352983	0.033260422	0.069537933	-1.5374083	0.47117648	-0.10055211	-1.1895297	0.51877013	0.18432269	-1.5376971	0.47342449	0.025926067	-1.1800846	0.50321587	0.057746134	-1.4214355	0.87595989	-0.14687063	-1.3883237	0.87063888	0.22275842	-1.3161652	0.94845191	-0.093879187	-1.3083312	0.95303084	0.14653706	-1.4693104	1.0133479	0.040240118	-1.2789071	1.4001198	-0.13013382	-1.3128652	1.4102787	0.19621218	-1.3563333	1.4610705	0.029830181	-1.3885554	1.0405725	-0.20890157	NaN	NaN	NaN	-1.1521434	0.90775028	-0.17034661	-1.3772204	0.84580821	0.31382012
9	0.032	-1.5382732	0.035594931	-0.0037760226	-0.92044636	0.10340388	0.11584569	-1.685665	0.081400148	-0.035904506	-1.0707188	0.072658632	0.13213492	-1.6574856	0.099071807	0.056821966	-1.0609345	0.11570759	0.043666434	NaN	NaN	NaN	-1.1167132	0.032695198	0.070699407	-1.5345858	0.47115322	-0.10064922	-1.1839161	0.51698816	0.18440964	-1.5344534	0.4733665	0.025844393	-1.1734256	0.50156266	0.057704913	-1.4157793	0.87486186	-0.14672261	-1.3823342	0.86884877	0.22286376	-1.3101678	0.947087	-0.093863066	-1.3020804	0.95146296	0.14663345	-1.4639653	1.0117032	0.038873796	-1.272887	1.3988366	-0.12981338	-1.3072629	1.408867	0.19649216	-1.3503717	1.4597689	0.030553415	-1.3811196	1.0387779	-0.20849129	NaN	NaN	NaN	-1.1441483	0.907271	-0.1695072	-1.3720108	0.8441545	0.31413021
10	0.036	-1.5381973	0.035554113	-0.0038198649	-0.90451552	0.10778176	0.11675821	-1.6853965	0.082275822	-0.035869623	-1.0543343	0.073618545	0.13257074	-1.6569929	0.099779384	0.056884636	-1.0452558	0.11692926	0.0441275	NaN	NaN	NaN	-1.0987395	0.032381442	0.071801164	-1.5315665	0.47108034	-0.10074751	-1.17789	0.5152756	0.18452255	-1.5310727	0.47327323	0.025779391	-1.1668007	0.4999286	0.0576282	-1.4101223	0.87375835	-0.1466211	-1.3762813	0.86703767	0.22298738	-1.3041863	0.94573634	-0.093844255	-1.2957728	0.94990746	0.14672916	-1.4590194	1.0100586	0.036779661	-1.2668419	1.3975564	-0.12949492	-1.3016217	1.4074519	0.19678395	-1.344459	1.4584433	0.030927177	-1.3737148	1.0369687	-0.20804703	NaN	NaN	NaN	-1.1361959	0.90670834	-0.16869102	-1.366755	0.8424985	0.31444755
